<mxfile host="app.diagrams.net" modified="2022-03-23T09:14:56.712Z" agent="5.0 (Windows NT 10.0; Win64; x64) AppleWebKit/537.36 (KHTML, like Gecko) Chrome/99.0.4844.82 Safari/537.36" etag="TCWRkah6dPbY9V0qJ3FJ" version="17.1.3" type="github" pages="2">
  <diagram id="UpaxMrM4MTmYhEKXG4QC" name="UseCase">
    <mxGraphModel dx="1209" dy="626" grid="1" gridSize="10" guides="1" tooltips="1" connect="1" arrows="1" fold="1" page="1" pageScale="1" pageWidth="827" pageHeight="1169" math="0" shadow="0">
      <root>
        <mxCell id="0" />
        <mxCell id="1" parent="0" />
        <mxCell id="wspuYjJ9wnveHCYF4-SS-1" value="Anonim" style="shape=umlActor;verticalLabelPosition=bottom;verticalAlign=top;html=1;outlineConnect=0;" vertex="1" parent="1">
          <mxGeometry x="140" y="130" width="50" height="90" as="geometry" />
        </mxCell>
        <mxCell id="wspuYjJ9wnveHCYF4-SS-2" value="Register" style="ellipse;whiteSpace=wrap;html=1;" vertex="1" parent="1">
          <mxGeometry x="354" y="220" width="120" height="80" as="geometry" />
        </mxCell>
        <mxCell id="wspuYjJ9wnveHCYF4-SS-3" value="Autorize" style="ellipse;whiteSpace=wrap;html=1;" vertex="1" parent="1">
          <mxGeometry x="354" y="30" width="120" height="80" as="geometry" />
        </mxCell>
        <mxCell id="wspuYjJ9wnveHCYF4-SS-4" value="" style="endArrow=none;html=1;rounded=0;endFill=0;" edge="1" parent="1" source="wspuYjJ9wnveHCYF4-SS-1" target="wspuYjJ9wnveHCYF4-SS-3">
          <mxGeometry width="50" height="50" relative="1" as="geometry">
            <mxPoint x="390" y="350" as="sourcePoint" />
            <mxPoint x="440" y="300" as="targetPoint" />
          </mxGeometry>
        </mxCell>
        <mxCell id="wspuYjJ9wnveHCYF4-SS-5" value="" style="endArrow=none;html=1;rounded=0;entryX=0;entryY=0.5;entryDx=0;entryDy=0;endFill=0;" edge="1" parent="1" source="wspuYjJ9wnveHCYF4-SS-1" target="wspuYjJ9wnveHCYF4-SS-2">
          <mxGeometry width="50" height="50" relative="1" as="geometry">
            <mxPoint x="390" y="350" as="sourcePoint" />
            <mxPoint x="440" y="300" as="targetPoint" />
          </mxGeometry>
        </mxCell>
        <mxCell id="wspuYjJ9wnveHCYF4-SS-8" value="User" style="shape=umlActor;verticalLabelPosition=bottom;verticalAlign=top;html=1;outlineConnect=0;" vertex="1" parent="1">
          <mxGeometry x="140" y="471" width="50" height="90" as="geometry" />
        </mxCell>
        <mxCell id="wspuYjJ9wnveHCYF4-SS-9" value="Admin" style="shape=umlActor;verticalLabelPosition=bottom;verticalAlign=top;html=1;outlineConnect=0;" vertex="1" parent="1">
          <mxGeometry x="140" y="700" width="50" height="90" as="geometry" />
        </mxCell>
        <mxCell id="wspuYjJ9wnveHCYF4-SS-10" value="Solve Task 1" style="ellipse;whiteSpace=wrap;html=1;" vertex="1" parent="1">
          <mxGeometry x="355" y="380" width="120" height="80" as="geometry" />
        </mxCell>
        <mxCell id="wspuYjJ9wnveHCYF4-SS-11" value="Solve Task 2" style="ellipse;whiteSpace=wrap;html=1;" vertex="1" parent="1">
          <mxGeometry x="354" y="561" width="120" height="80" as="geometry" />
        </mxCell>
        <mxCell id="wspuYjJ9wnveHCYF4-SS-12" value="Look Statistics" style="ellipse;whiteSpace=wrap;html=1;" vertex="1" parent="1">
          <mxGeometry x="354" y="471" width="120" height="80" as="geometry" />
        </mxCell>
        <mxCell id="wspuYjJ9wnveHCYF4-SS-13" value="" style="endArrow=classic;html=1;rounded=0;entryX=0;entryY=0.5;entryDx=0;entryDy=0;" edge="1" parent="1" source="wspuYjJ9wnveHCYF4-SS-8" target="wspuYjJ9wnveHCYF4-SS-12">
          <mxGeometry width="50" height="50" relative="1" as="geometry">
            <mxPoint x="390" y="360" as="sourcePoint" />
            <mxPoint x="440" y="310" as="targetPoint" />
          </mxGeometry>
        </mxCell>
        <mxCell id="wspuYjJ9wnveHCYF4-SS-14" value="" style="endArrow=none;html=1;rounded=0;entryX=0;entryY=0.5;entryDx=0;entryDy=0;" edge="1" parent="1" source="wspuYjJ9wnveHCYF4-SS-8" target="wspuYjJ9wnveHCYF4-SS-11">
          <mxGeometry width="50" height="50" relative="1" as="geometry">
            <mxPoint x="390" y="360" as="sourcePoint" />
            <mxPoint x="440" y="310" as="targetPoint" />
          </mxGeometry>
        </mxCell>
        <mxCell id="wspuYjJ9wnveHCYF4-SS-15" value="" style="endArrow=none;html=1;rounded=0;entryX=0;entryY=0.5;entryDx=0;entryDy=0;" edge="1" parent="1" source="wspuYjJ9wnveHCYF4-SS-8" target="wspuYjJ9wnveHCYF4-SS-10">
          <mxGeometry width="50" height="50" relative="1" as="geometry">
            <mxPoint x="200" y="439.02116402116394" as="sourcePoint" />
            <mxPoint x="364" y="531" as="targetPoint" />
          </mxGeometry>
        </mxCell>
        <mxCell id="wspuYjJ9wnveHCYF4-SS-16" value="Delete User" style="ellipse;whiteSpace=wrap;html=1;" vertex="1" parent="1">
          <mxGeometry x="355" y="670" width="120" height="80" as="geometry" />
        </mxCell>
        <mxCell id="wspuYjJ9wnveHCYF4-SS-17" value="Look Statistics" style="ellipse;whiteSpace=wrap;html=1;" vertex="1" parent="1">
          <mxGeometry x="354" y="780" width="120" height="80" as="geometry" />
        </mxCell>
        <mxCell id="wspuYjJ9wnveHCYF4-SS-18" value="" style="endArrow=classic;html=1;rounded=0;entryX=0;entryY=0.5;entryDx=0;entryDy=0;" edge="1" parent="1" target="wspuYjJ9wnveHCYF4-SS-17" source="wspuYjJ9wnveHCYF4-SS-9">
          <mxGeometry width="50" height="50" relative="1" as="geometry">
            <mxPoint x="210" y="667.2957894736842" as="sourcePoint" />
            <mxPoint x="460" y="535.98" as="targetPoint" />
          </mxGeometry>
        </mxCell>
        <mxCell id="wspuYjJ9wnveHCYF4-SS-19" value="" style="endArrow=none;html=1;rounded=0;entryX=0;entryY=0.5;entryDx=0;entryDy=0;" edge="1" parent="1" target="wspuYjJ9wnveHCYF4-SS-16" source="wspuYjJ9wnveHCYF4-SS-9">
          <mxGeometry width="50" height="50" relative="1" as="geometry">
            <mxPoint x="210" y="655.001164021164" as="sourcePoint" />
            <mxPoint x="460" y="535.98" as="targetPoint" />
          </mxGeometry>
        </mxCell>
        <mxCell id="wspuYjJ9wnveHCYF4-SS-22" value="Application1" style="shape=umlActor;verticalLabelPosition=bottom;verticalAlign=top;html=1;outlineConnect=0;" vertex="1" parent="1">
          <mxGeometry x="240" y="320" width="50" height="90" as="geometry" />
        </mxCell>
        <mxCell id="wspuYjJ9wnveHCYF4-SS-23" value="" style="endArrow=none;html=1;rounded=0;exitX=0.5;exitY=0;exitDx=0;exitDy=0;" edge="1" parent="1" source="wspuYjJ9wnveHCYF4-SS-10" target="wspuYjJ9wnveHCYF4-SS-22">
          <mxGeometry width="50" height="50" relative="1" as="geometry">
            <mxPoint x="390" y="420" as="sourcePoint" />
            <mxPoint x="440" y="370" as="targetPoint" />
          </mxGeometry>
        </mxCell>
        <mxCell id="wspuYjJ9wnveHCYF4-SS-25" value="Server" style="shape=umlActor;verticalLabelPosition=bottom;verticalAlign=top;html=1;outlineConnect=0;" vertex="1" parent="1">
          <mxGeometry x="730" y="380" width="50" height="90" as="geometry" />
        </mxCell>
        <mxCell id="wspuYjJ9wnveHCYF4-SS-26" value="" style="endArrow=none;html=1;rounded=0;exitX=1;exitY=0.5;exitDx=0;exitDy=0;" edge="1" parent="1" source="wspuYjJ9wnveHCYF4-SS-2">
          <mxGeometry width="50" height="50" relative="1" as="geometry">
            <mxPoint x="390" y="420" as="sourcePoint" />
            <mxPoint x="720" y="410" as="targetPoint" />
          </mxGeometry>
        </mxCell>
        <mxCell id="wspuYjJ9wnveHCYF4-SS-27" value="" style="endArrow=none;html=1;rounded=0;exitX=1;exitY=1;exitDx=0;exitDy=0;" edge="1" parent="1" source="wspuYjJ9wnveHCYF4-SS-3" target="wspuYjJ9wnveHCYF4-SS-25">
          <mxGeometry width="50" height="50" relative="1" as="geometry">
            <mxPoint x="484" y="270" as="sourcePoint" />
            <mxPoint x="752.5" y="399" as="targetPoint" />
          </mxGeometry>
        </mxCell>
        <mxCell id="wspuYjJ9wnveHCYF4-SS-28" value="" style="endArrow=none;html=1;rounded=0;exitX=1;exitY=0.5;exitDx=0;exitDy=0;" edge="1" parent="1" source="wspuYjJ9wnveHCYF4-SS-12" target="wspuYjJ9wnveHCYF4-SS-25">
          <mxGeometry width="50" height="50" relative="1" as="geometry">
            <mxPoint x="494" y="280" as="sourcePoint" />
            <mxPoint x="762.5" y="409" as="targetPoint" />
          </mxGeometry>
        </mxCell>
        <mxCell id="wspuYjJ9wnveHCYF4-SS-29" value="" style="endArrow=none;html=1;rounded=0;exitX=1;exitY=0.5;exitDx=0;exitDy=0;" edge="1" parent="1" source="wspuYjJ9wnveHCYF4-SS-16" target="wspuYjJ9wnveHCYF4-SS-25">
          <mxGeometry width="50" height="50" relative="1" as="geometry">
            <mxPoint x="504" y="290" as="sourcePoint" />
            <mxPoint x="772.5" y="419" as="targetPoint" />
          </mxGeometry>
        </mxCell>
        <mxCell id="wspuYjJ9wnveHCYF4-SS-30" value="" style="endArrow=none;html=1;rounded=0;exitX=1;exitY=0.5;exitDx=0;exitDy=0;" edge="1" parent="1" source="wspuYjJ9wnveHCYF4-SS-17" target="wspuYjJ9wnveHCYF4-SS-25">
          <mxGeometry width="50" height="50" relative="1" as="geometry">
            <mxPoint x="514" y="300" as="sourcePoint" />
            <mxPoint x="782.5" y="429" as="targetPoint" />
          </mxGeometry>
        </mxCell>
        <mxCell id="wspuYjJ9wnveHCYF4-SS-31" value="" style="endArrow=classic;html=1;rounded=0;exitX=1;exitY=0.5;exitDx=0;exitDy=0;" edge="1" parent="1" source="wspuYjJ9wnveHCYF4-SS-10" target="wspuYjJ9wnveHCYF4-SS-25">
          <mxGeometry width="50" height="50" relative="1" as="geometry">
            <mxPoint x="420" y="630" as="sourcePoint" />
            <mxPoint x="470" y="580" as="targetPoint" />
          </mxGeometry>
        </mxCell>
        <mxCell id="wspuYjJ9wnveHCYF4-SS-33" value="" style="endArrow=classic;html=1;rounded=0;exitX=1;exitY=0.5;exitDx=0;exitDy=0;" edge="1" parent="1" source="wspuYjJ9wnveHCYF4-SS-11" target="wspuYjJ9wnveHCYF4-SS-25">
          <mxGeometry width="50" height="50" relative="1" as="geometry">
            <mxPoint x="485" y="430" as="sourcePoint" />
            <mxPoint x="730" y="550" as="targetPoint" />
          </mxGeometry>
        </mxCell>
        <mxCell id="wspuYjJ9wnveHCYF4-SS-34" value="Application2" style="shape=umlActor;verticalLabelPosition=bottom;verticalAlign=top;html=1;outlineConnect=0;" vertex="1" parent="1">
          <mxGeometry x="230" y="600" width="50" height="90" as="geometry" />
        </mxCell>
        <mxCell id="wspuYjJ9wnveHCYF4-SS-35" value="" style="endArrow=none;html=1;rounded=0;exitX=0;exitY=1;exitDx=0;exitDy=0;" edge="1" parent="1" target="wspuYjJ9wnveHCYF4-SS-34" source="wspuYjJ9wnveHCYF4-SS-11">
          <mxGeometry width="50" height="50" relative="1" as="geometry">
            <mxPoint x="405" y="660" as="sourcePoint" />
            <mxPoint x="430" y="650" as="targetPoint" />
          </mxGeometry>
        </mxCell>
      </root>
    </mxGraphModel>
  </diagram>
  <diagram id="5SPINO3OJEIlT_4r1-nM" name="ClassDiagram">
    <mxGraphModel dx="1209" dy="626" grid="1" gridSize="10" guides="1" tooltips="1" connect="1" arrows="1" fold="1" page="1" pageScale="1" pageWidth="827" pageHeight="1169" math="0" shadow="0">
      <root>
        <mxCell id="7BdAt3FaskVFl1m1Zbfm-0" />
        <mxCell id="7BdAt3FaskVFl1m1Zbfm-1" parent="7BdAt3FaskVFl1m1Zbfm-0" />
        <mxCell id="7BdAt3FaskVFl1m1Zbfm-2" value="MyServer" style="swimlane;fontStyle=1;align=center;verticalAlign=top;childLayout=stackLayout;horizontal=1;startSize=26;horizontalStack=0;resizeParent=1;resizeParentMax=0;resizeLast=0;collapsible=1;marginBottom=0;" vertex="1" parent="7BdAt3FaskVFl1m1Zbfm-1">
          <mxGeometry x="40" y="80" width="260" height="170" as="geometry" />
        </mxCell>
        <mxCell id="7BdAt3FaskVFl1m1Zbfm-3" value="-mTcpServer : QTcpServer&#xa;-mTcpSockets : QMap &lt;QtcpSocket*&gt;" style="text;strokeColor=none;fillColor=none;align=left;verticalAlign=top;spacingLeft=4;spacingRight=4;overflow=hidden;rotatable=0;points=[[0,0.5],[1,0.5]];portConstraint=eastwest;" vertex="1" parent="7BdAt3FaskVFl1m1Zbfm-2">
          <mxGeometry y="26" width="260" height="44" as="geometry" />
        </mxCell>
        <mxCell id="7BdAt3FaskVFl1m1Zbfm-4" value="" style="line;strokeWidth=1;fillColor=none;align=left;verticalAlign=middle;spacingTop=-1;spacingLeft=3;spacingRight=3;rotatable=0;labelPosition=right;points=[];portConstraint=eastwest;" vertex="1" parent="7BdAt3FaskVFl1m1Zbfm-2">
          <mxGeometry y="70" width="260" height="8" as="geometry" />
        </mxCell>
        <mxCell id="7BdAt3FaskVFl1m1Zbfm-5" value="+  MyServer()&#xa;+ ~MyServer()&#xa;&#xa;+ slotNewConnection();&#xa;+ slotServerRead();&#xa;+ slotClientDisconnection()" style="text;strokeColor=none;fillColor=none;align=left;verticalAlign=top;spacingLeft=4;spacingRight=4;overflow=hidden;rotatable=0;points=[[0,0.5],[1,0.5]];portConstraint=eastwest;" vertex="1" parent="7BdAt3FaskVFl1m1Zbfm-2">
          <mxGeometry y="78" width="260" height="92" as="geometry" />
        </mxCell>
        <mxCell id="7BdAt3FaskVFl1m1Zbfm-6" value="DataBase_Destructor" style="swimlane;fontStyle=1;align=center;verticalAlign=top;childLayout=stackLayout;horizontal=1;startSize=26;horizontalStack=0;resizeParent=1;resizeParentMax=0;resizeLast=0;collapsible=1;marginBottom=0;" vertex="1" parent="7BdAt3FaskVFl1m1Zbfm-1">
          <mxGeometry x="440" y="80" width="260" height="140" as="geometry" />
        </mxCell>
        <mxCell id="7BdAt3FaskVFl1m1Zbfm-7" value="-  db_pointer : DataBase" style="text;strokeColor=none;fillColor=none;align=left;verticalAlign=top;spacingLeft=4;spacingRight=4;overflow=hidden;rotatable=0;points=[[0,0.5],[1,0.5]];portConstraint=eastwest;" vertex="1" parent="7BdAt3FaskVFl1m1Zbfm-6">
          <mxGeometry y="26" width="260" height="34" as="geometry" />
        </mxCell>
        <mxCell id="7BdAt3FaskVFl1m1Zbfm-8" value="" style="line;strokeWidth=1;fillColor=none;align=left;verticalAlign=middle;spacingTop=-1;spacingLeft=3;spacingRight=3;rotatable=0;labelPosition=right;points=[];portConstraint=eastwest;" vertex="1" parent="7BdAt3FaskVFl1m1Zbfm-6">
          <mxGeometry y="60" width="260" height="8" as="geometry" />
        </mxCell>
        <mxCell id="7BdAt3FaskVFl1m1Zbfm-9" value="-  DataBase_Destructor();&#xa;+~DataBase_Destructor()&#xa;&#xa;+ initialize(DataBase * p) : void" style="text;strokeColor=none;fillColor=none;align=left;verticalAlign=top;spacingLeft=4;spacingRight=4;overflow=hidden;rotatable=0;points=[[0,0.5],[1,0.5]];portConstraint=eastwest;" vertex="1" parent="7BdAt3FaskVFl1m1Zbfm-6">
          <mxGeometry y="68" width="260" height="72" as="geometry" />
        </mxCell>
        <mxCell id="7BdAt3FaskVFl1m1Zbfm-10" value="DataBase" style="swimlane;fontStyle=1;align=center;verticalAlign=top;childLayout=stackLayout;horizontal=1;startSize=26;horizontalStack=0;resizeParent=1;resizeParentMax=0;resizeLast=0;collapsible=1;marginBottom=0;" vertex="1" parent="7BdAt3FaskVFl1m1Zbfm-1">
          <mxGeometry x="440" y="290" width="340" height="250" as="geometry" />
        </mxCell>
        <mxCell id="7BdAt3FaskVFl1m1Zbfm-11" value="- db_pointer : static DataBase *&#xa;- destroyer : static DataBase_Destructor&#xa;- db : QSqlDatabase" style="text;strokeColor=none;fillColor=none;align=left;verticalAlign=top;spacingLeft=4;spacingRight=4;overflow=hidden;rotatable=0;points=[[0,0.5],[1,0.5]];portConstraint=eastwest;" vertex="1" parent="7BdAt3FaskVFl1m1Zbfm-10">
          <mxGeometry y="26" width="340" height="54" as="geometry" />
        </mxCell>
        <mxCell id="7BdAt3FaskVFl1m1Zbfm-12" value="" style="line;strokeWidth=1;fillColor=none;align=left;verticalAlign=middle;spacingTop=-1;spacingLeft=3;spacingRight=3;rotatable=0;labelPosition=right;points=[];portConstraint=eastwest;" vertex="1" parent="7BdAt3FaskVFl1m1Zbfm-10">
          <mxGeometry y="80" width="340" height="8" as="geometry" />
        </mxCell>
        <mxCell id="7BdAt3FaskVFl1m1Zbfm-13" value="*  DataBase()&#xa;*  DataBase( DataBase &amp; )&#xa;* ~DataBase()&#xa;&#xa;*  operator =(DataBase &amp;,DataBase &amp;): static DataBase &amp;&#xa;&#xa;+ getInstance()  :  DataBase *;&#xa;+ openDB() : bool;&#xa;+ closeDB() : bool;&#xa;+ makeQuerry(QSrting) : ????" style="text;strokeColor=none;fillColor=none;align=left;verticalAlign=top;spacingLeft=4;spacingRight=4;overflow=hidden;rotatable=0;points=[[0,0.5],[1,0.5]];portConstraint=eastwest;" vertex="1" parent="7BdAt3FaskVFl1m1Zbfm-10">
          <mxGeometry y="88" width="340" height="162" as="geometry" />
        </mxCell>
        <mxCell id="7BdAt3FaskVFl1m1Zbfm-14" value="Functions" style="swimlane;fontStyle=1;align=center;verticalAlign=top;childLayout=stackLayout;horizontal=1;startSize=26;horizontalStack=0;resizeParent=1;resizeParentMax=0;resizeLast=0;collapsible=1;marginBottom=0;" vertex="1" parent="7BdAt3FaskVFl1m1Zbfm-1">
          <mxGeometry x="40" y="320" width="260" height="126" as="geometry" />
        </mxCell>
        <mxCell id="7BdAt3FaskVFl1m1Zbfm-16" value="" style="line;strokeWidth=1;fillColor=none;align=left;verticalAlign=middle;spacingTop=-1;spacingLeft=3;spacingRight=3;rotatable=0;labelPosition=right;points=[];portConstraint=eastwest;" vertex="1" parent="7BdAt3FaskVFl1m1Zbfm-14">
          <mxGeometry y="26" width="260" height="8" as="geometry" />
        </mxCell>
        <mxCell id="7BdAt3FaskVFl1m1Zbfm-17" value="+ auth(QString, QString):QByteArray&#xa;+ reg(QString, QString):QByteArray&#xa;+ statisyics():QByteArray&#xa;+ parsing(QString): QByteArray" style="text;strokeColor=none;fillColor=none;align=left;verticalAlign=top;spacingLeft=4;spacingRight=4;overflow=hidden;rotatable=0;points=[[0,0.5],[1,0.5]];portConstraint=eastwest;" vertex="1" parent="7BdAt3FaskVFl1m1Zbfm-14">
          <mxGeometry y="34" width="260" height="92" as="geometry" />
        </mxCell>
        <mxCell id="7BdAt3FaskVFl1m1Zbfm-18" value="1" style="endArrow=open;html=1;endSize=12;startArrow=diamondThin;startSize=14;startFill=0;edgeStyle=orthogonalEdgeStyle;align=left;verticalAlign=bottom;rounded=0;entryX=1.011;entryY=0.071;entryDx=0;entryDy=0;entryPerimeter=0;" edge="1" parent="7BdAt3FaskVFl1m1Zbfm-1" source="7BdAt3FaskVFl1m1Zbfm-6" target="7BdAt3FaskVFl1m1Zbfm-10">
          <mxGeometry x="-1" y="3" relative="1" as="geometry">
            <mxPoint x="350" y="240" as="sourcePoint" />
            <mxPoint x="510" y="240" as="targetPoint" />
            <Array as="points">
              <mxPoint x="820" y="184" />
              <mxPoint x="820" y="308" />
            </Array>
          </mxGeometry>
        </mxCell>
        <mxCell id="7BdAt3FaskVFl1m1Zbfm-19" value="Use" style="endArrow=open;endSize=12;dashed=1;html=1;rounded=0;entryX=1.015;entryY=0.149;entryDx=0;entryDy=0;entryPerimeter=0;exitX=1.001;exitY=-0.083;exitDx=0;exitDy=0;exitPerimeter=0;" edge="1" parent="7BdAt3FaskVFl1m1Zbfm-1" source="7BdAt3FaskVFl1m1Zbfm-3" target="7BdAt3FaskVFl1m1Zbfm-14">
          <mxGeometry width="160" relative="1" as="geometry">
            <mxPoint x="300" y="90" as="sourcePoint" />
            <mxPoint x="460" y="90" as="targetPoint" />
            <Array as="points">
              <mxPoint x="340" y="102" />
              <mxPoint x="340" y="340" />
            </Array>
          </mxGeometry>
        </mxCell>
        <mxCell id="7BdAt3FaskVFl1m1Zbfm-20" value="Use" style="endArrow=open;endSize=12;dashed=1;html=1;rounded=0;exitX=1.001;exitY=0.09;exitDx=0;exitDy=0;exitPerimeter=0;entryX=-0.006;entryY=0.035;entryDx=0;entryDy=0;entryPerimeter=0;" edge="1" parent="7BdAt3FaskVFl1m1Zbfm-1" source="7BdAt3FaskVFl1m1Zbfm-2" target="7BdAt3FaskVFl1m1Zbfm-10">
          <mxGeometry width="160" relative="1" as="geometry">
            <mxPoint x="350" y="270" as="sourcePoint" />
            <mxPoint x="510" y="270" as="targetPoint" />
            <Array as="points">
              <mxPoint x="380" y="95" />
              <mxPoint x="380" y="299" />
            </Array>
          </mxGeometry>
        </mxCell>
      </root>
    </mxGraphModel>
  </diagram>
</mxfile>
